M48
; DRILL file {KiCad 7.0.6} date Thu Aug 24 19:47:48 2023
; FORMAT={-:-/ absolute / inch / decimal}
; #@! TF.CreationDate,2023-08-24T19:47:48-04:00
; #@! TF.GenerationSoftware,Kicad,Pcbnew,7.0.6
; #@! TF.FileFunction,Plated,1,2,PTH
FMAT,2
INCH
; #@! TA.AperFunction,Plated,PTH,ViaDrill
T1C0.0157
; #@! TA.AperFunction,Plated,PTH,ComponentDrill
T2C0.0300
; #@! TA.AperFunction,Plated,PTH,ComponentDrill
T3C0.0315
; #@! TA.AperFunction,Plated,PTH,ComponentDrill
T4C0.0394
; #@! TA.AperFunction,Plated,PTH,ComponentDrill
T5C0.0433
; #@! TA.AperFunction,Plated,PTH,ComponentDrill
T6C0.0469
%
G90
G05
T1
X-2.6Y-0.62
X-2.31Y-0.81
X-1.82Y-1.58
X-1.73Y-0.5103
X-1.2Y-0.68
X-1.06Y-0.68
X-1.04Y0.18
X-0.95Y-1.45
X-0.94Y-1.08
X-0.62Y0.47
X-0.4742Y-1.28
X-0.29Y-1.53
X0.24Y-1.32
X0.3158Y-1.56
X0.37Y-1.12
X0.39Y-0.89
X0.4769Y-1.2769
X0.7938Y0.52
T2
X-0.1Y1.1784
X0.0Y1.0784
X0.1Y1.1784
T3
X-3.2284Y-1.45
X-3.13Y-1.45
X-3.02Y0.72
X-2.9904Y-0.9926
X-2.9904Y-1.1894
X-2.99Y-0.5616
X-2.99Y-0.7584
X-2.9896Y-1.4212
X-2.9896Y-1.618
X-2.85Y-0.9406
X-2.85Y-1.2406
X-2.8496Y-0.5096
X-2.8496Y-0.8096
X-2.8496Y-1.3696
X-2.8496Y-1.6696
X-2.81Y1.2484
X-2.81Y1.15
X-2.81Y1.03
X-2.81Y0.8331
X-2.75Y-0.9406
X-2.75Y-1.2406
X-2.7496Y-0.5096
X-2.7496Y-0.8096
X-2.7496Y-1.3696
X-2.7496Y-1.6696
X-2.721Y0.53
X-2.65Y-0.9406
X-2.65Y-1.2406
X-2.6496Y-0.5096
X-2.6496Y-0.8096
X-2.6496Y-1.3696
X-2.6496Y-1.6696
X-2.6226Y0.53
X-2.62Y1.26
X-2.62Y0.86
X-2.62Y0.72
X-2.55Y-0.9406
X-2.55Y-1.2406
X-2.5496Y-0.5096
X-2.5496Y-0.8096
X-2.5496Y-1.3696
X-2.5496Y-1.6696
X-2.5Y-0.09
X-2.5Y-0.2869
X-2.4284Y-1.08
X-2.33Y-1.08
X-2.31Y-0.0846
X-2.31Y-0.1846
X-2.31Y-0.2846
X-2.21Y-1.08
X-2.15Y-0.0831
X-2.15Y-0.28
X-2.1116Y-1.08
X-1.94Y0.28
X-1.94Y-0.02
X-1.9Y-1.4
X-1.9Y-1.52
X-1.9Y-1.64
X-1.89Y-0.13
X-1.89Y-0.2502
X-1.89Y-0.37
X-1.84Y0.28
X-1.84Y-0.02
X-1.81Y0.97
X-1.81Y0.85
X-1.81Y0.73
X-1.81Y0.61
X-1.76Y1.2869
X-1.76Y1.09
X-1.74Y0.28
X-1.74Y-0.02
X-1.73Y0.43
X-1.64Y0.28
X-1.64Y-0.02
X-1.54Y0.28
X-1.54Y-0.02
X-1.5331Y0.43
X-1.5Y-1.4
X-1.5Y-1.52
X-1.5Y-1.64
X-1.49Y-0.13
X-1.49Y-0.2502
X-1.49Y-0.37
X-1.44Y0.28
X-1.44Y-0.02
X-1.43Y1.1784
X-1.43Y1.08
X-1.41Y0.97
X-1.41Y0.85
X-1.41Y0.73
X-1.41Y0.61
X-1.3884Y0.43
X-1.2896Y0.8996
X-1.2896Y0.7996
X-1.2896Y0.6996
X-1.2896Y0.5996
X-1.28Y-0.52
X-1.28Y-0.82
X-1.28Y-0.95
X-1.28Y-1.25
X-1.28Y-1.38
X-1.28Y-1.68
X-1.2384Y1.04
X-1.1916Y0.43
X-1.18Y-0.52
X-1.18Y-0.82
X-1.18Y-0.95
X-1.18Y-1.25
X-1.18Y-1.38
X-1.18Y-1.68
X-1.1384Y1.24
X-1.08Y-0.52
X-1.08Y-0.82
X-1.08Y-0.95
X-1.08Y-1.25
X-1.08Y-1.38
X-1.08Y-1.68
X-1.0416Y1.04
X-0.9896Y0.8996
X-0.9896Y0.7996
X-0.9896Y0.6996
X-0.9896Y0.5996
X-0.98Y-0.52
X-0.98Y-0.82
X-0.98Y-0.95
X-0.98Y-1.25
X-0.98Y-1.38
X-0.98Y-1.68
X-0.9416Y1.24
X-0.88Y0.97
X-0.88Y0.85
X-0.88Y0.73
X-0.88Y0.61
X-0.88Y-0.52
X-0.88Y-0.82
X-0.88Y-0.95
X-0.88Y-1.25
X-0.88Y-1.38
X-0.88Y-1.68
X-0.78Y-0.52
X-0.78Y-0.82
X-0.78Y-0.95
X-0.78Y-1.25
X-0.78Y-1.38
X-0.78Y-1.68
X-0.68Y-0.52
X-0.68Y-0.82
X-0.68Y-0.95
X-0.68Y-1.25
X-0.68Y-1.38
X-0.68Y-1.68
X-0.51Y1.18
X-0.51Y1.0816
X-0.49Y-0.5716
X-0.49Y-0.7684
X-0.49Y-1.0016
X-0.49Y-1.1984
X-0.49Y-1.4316
X-0.49Y-1.6284
X-0.48Y0.97
X-0.48Y0.85
X-0.48Y0.73
X-0.48Y0.61
X-0.37Y0.97
X-0.37Y0.85
X-0.37Y0.73
X-0.37Y0.61
X-0.3Y-0.95
X-0.3Y-1.25
X-0.3Y-1.38
X-0.3Y-1.68
X-0.2Y-0.95
X-0.2Y-1.25
X-0.2Y-1.38
X-0.2Y-1.68
X-0.1Y-0.95
X-0.1Y-1.25
X-0.1Y-1.38
X-0.1Y-1.68
X0.0Y-0.95
X0.0Y-1.25
X0.0Y-1.38
X0.0Y-1.68
X0.03Y0.97
X0.03Y0.85
X0.03Y0.73
X0.03Y0.61
X0.1Y-0.95
X0.1Y-1.25
X0.1Y-1.38
X0.1Y-1.68
X0.18Y0.9869
X0.18Y0.79
X0.18Y0.6884
X0.18Y0.59
X0.2Y-0.95
X0.2Y-1.25
X0.2Y-1.38
X0.2Y-1.68
X0.2116Y1.16
X0.3Y-0.95
X0.3Y-1.25
X0.3Y-1.38
X0.3Y-1.68
X0.33Y0.97
X0.33Y0.85
X0.33Y0.73
X0.33Y0.61
X0.33Y0.46
X0.33Y0.34
X0.33Y0.2192
X0.33Y-0.3208
X0.3496Y0.0988
X0.3496Y-0.2012
X0.4084Y1.16
X0.4496Y0.0988
X0.4496Y-0.2012
X0.49Y-1.0016
X0.49Y-1.1984
X0.49Y-1.4416
X0.49Y-1.6384
X0.5496Y0.0988
X0.5496Y-0.2012
X0.57Y1.13
X0.61Y-0.56
X0.61Y-0.68
X0.61Y-0.8
X0.61Y-0.92
X0.61Y-1.04
X0.61Y-1.16
X0.61Y-1.28
X0.61Y-1.4
X0.61Y-1.52
X0.61Y-1.64
X0.61Y-1.76
X0.6496Y0.0988
X0.6496Y-0.2012
X0.73Y0.97
X0.73Y0.85
X0.73Y0.73
X0.73Y0.61
X0.73Y0.46
X0.73Y0.34
X0.73Y0.2192
X0.73Y-0.3208
X0.7669Y1.13
X0.79Y0.0476
X0.79Y-0.1492
X0.89Y0.9096
X0.89Y0.8096
X0.89Y0.7096
X0.89Y0.6096
X0.91Y0.23
X0.91Y0.1316
X0.91Y-0.2416
X0.91Y-0.34
X0.93Y0.46
X0.93Y0.34
X0.93Y0.01
X0.93Y-0.11
X0.9431Y1.05
X1.01Y-0.56
X1.01Y-0.68
X1.01Y-0.8
X1.01Y-0.92
X1.01Y-1.04
X1.01Y-1.16
X1.01Y-1.28
X1.01Y-1.4
X1.01Y-1.52
X1.01Y-1.64
X1.01Y-1.76
X1.0916Y0.19
X1.0916Y-0.28
X1.14Y1.05
X1.19Y0.9096
X1.19Y0.8096
X1.19Y0.7096
X1.19Y0.6096
X1.2884Y0.19
X1.2884Y-0.28
X1.31Y1.1984
X1.31Y1.1
X1.33Y0.97
X1.33Y0.85
X1.33Y0.73
X1.33Y0.61
X1.33Y0.46
X1.33Y0.34
X1.33Y0.01
X1.33Y-0.11
X1.4316Y0.46
X1.6284Y0.46
X1.73Y0.97
X1.73Y0.85
X1.73Y0.73
X1.73Y0.61
T4
X-1.2394Y0.11
X-1.2394Y0.01
X-1.2394Y-0.09
X-1.2394Y-0.19
X-1.2394Y-0.29
X-0.9394Y0.11
X-0.9394Y0.01
X-0.9394Y-0.09
X-0.9394Y-0.19
X-0.9394Y-0.29
X-0.6994Y0.11
X-0.6994Y0.01
X-0.6994Y-0.09
X-0.6994Y-0.19
X-0.6994Y-0.29
X-0.3994Y0.11
X-0.3994Y0.01
X-0.3994Y-0.09
X-0.3994Y-0.19
X-0.3994Y-0.29
X-0.1594Y0.11
X-0.1594Y0.01
X-0.1594Y-0.09
X-0.1594Y-0.19
X-0.1594Y-0.29
X0.1406Y0.11
X0.1406Y0.01
X0.1406Y-0.09
X0.1406Y-0.19
X0.1406Y-0.29
X1.27Y-0.66
X1.27Y-1.36
X1.37Y-0.66
X1.37Y-1.36
X1.47Y-0.66
X1.47Y-1.36
X1.57Y-0.66
X1.57Y-1.36
X1.67Y-0.66
X1.67Y-1.36
X1.77Y-0.66
X1.77Y-1.36
T5
X-3.0Y1.24
X-3.0Y0.84
X-2.52Y0.03
X-2.12Y0.03
X-1.99Y-0.54
X-1.99Y-0.67
X-1.99Y-0.8
X-1.99Y-0.93
X-1.99Y-1.06
X-1.99Y-1.19
X-1.59Y-0.54
X-1.59Y-0.67
X-1.59Y-0.8
X-1.59Y-0.93
X-1.59Y-1.06
X-1.59Y-1.19
T6
X-3.38Y-0.59
X-3.28Y-0.59
X-3.27Y0.8884
X-3.27Y0.7884
X-3.18Y-0.59
X-1.02Y0.3792
X-0.92Y0.3792
X-0.82Y0.3792
X-0.72Y0.3792
X-0.62Y0.3792
X-0.52Y0.3792
X-0.37Y0.3808
X-0.27Y0.3808
X-0.23Y-0.75
X-0.17Y0.3808
X-0.13Y-0.75
X-0.07Y0.3808
X-0.03Y-0.75
X0.03Y0.3808
X0.07Y-0.75
X0.13Y0.3808
X1.53Y0.3
X1.53Y0.2
X1.53Y0.1
X1.53Y0.0
X1.53Y-0.1
X1.53Y-0.2
X1.53Y-0.3
T0
M30
