%TF.GenerationSoftware,KiCad,Pcbnew,7.0.6*%
%TF.CreationDate,2023-08-24T19:47:58-04:00*%
%TF.ProjectId,summer,73756d6d-6572-42e6-9b69-6361645f7063,rev?*%
%TF.SameCoordinates,Original*%
%TF.FileFunction,Soldermask,Bot*%
%TF.FilePolarity,Negative*%
%FSLAX46Y46*%
G04 Gerber Fmt 4.6, Leading zero omitted, Abs format (unit mm)*
G04 Created by KiCad (PCBNEW 7.0.6) date 2023-08-24 19:47:58*
%MOMM*%
%LPD*%
G01*
G04 APERTURE LIST*
G04 Aperture macros list*
%AMRoundRect*
0 Rectangle with rounded corners*
0 $1 Rounding radius*
0 $2 $3 $4 $5 $6 $7 $8 $9 X,Y pos of 4 corners*
0 Add a 4 corners polygon primitive as box body*
4,1,4,$2,$3,$4,$5,$6,$7,$8,$9,$2,$3,0*
0 Add four circle primitives for the rounded corners*
1,1,$1+$1,$2,$3*
1,1,$1+$1,$4,$5*
1,1,$1+$1,$6,$7*
1,1,$1+$1,$8,$9*
0 Add four rect primitives between the rounded corners*
20,1,$1+$1,$2,$3,$4,$5,0*
20,1,$1+$1,$4,$5,$6,$7,0*
20,1,$1+$1,$6,$7,$8,$9,0*
20,1,$1+$1,$8,$9,$2,$3,0*%
G04 Aperture macros list end*
%ADD10R,2.200000X2.200000*%
%ADD11O,2.200000X2.200000*%
%ADD12C,1.600000*%
%ADD13R,1.600000X1.600000*%
%ADD14O,1.600000X1.600000*%
%ADD15C,4.000000*%
%ADD16RoundRect,0.250000X0.620000X0.845000X-0.620000X0.845000X-0.620000X-0.845000X0.620000X-0.845000X0*%
%ADD17O,1.740000X2.190000*%
%ADD18O,2.300000X1.600000*%
%ADD19R,1.700000X1.700000*%
%ADD20O,1.700000X1.700000*%
%ADD21RoundRect,0.250000X-0.845000X0.620000X-0.845000X-0.620000X0.845000X-0.620000X0.845000X0.620000X0*%
%ADD22O,2.190000X1.740000*%
%ADD23RoundRect,0.250000X0.845000X-0.620000X0.845000X0.620000X-0.845000X0.620000X-0.845000X-0.620000X0*%
%ADD24RoundRect,0.250000X-0.620000X-0.845000X0.620000X-0.845000X0.620000X0.845000X-0.620000X0.845000X0*%
%ADD25R,1.500000X1.500000*%
%ADD26C,1.500000*%
%ADD27C,1.524000*%
%ADD28C,1.219200*%
%ADD29C,0.508000*%
G04 APERTURE END LIST*
D10*
%TO.C,D6*%
X-40386000Y-13716000D03*
D11*
X-50546000Y-13716000D03*
%TD*%
D12*
%TO.C,C26*%
X-26456000Y26416000D03*
X-31456000Y26416000D03*
%TD*%
%TO.C,C19*%
X4572000Y20066000D03*
X4572000Y25066000D03*
%TD*%
D13*
%TO.C,C3*%
X-71374000Y29210000D03*
D12*
X-71374000Y31710000D03*
%TD*%
D13*
%TO.C,U10*%
X-49276000Y-508000D03*
D14*
X-46736000Y-508000D03*
X-46736000Y7112000D03*
X-49276000Y7112000D03*
%TD*%
D15*
%TO.C,HOLE4*%
X-83312000Y-43434000D03*
%TD*%
D10*
%TO.C,D5*%
X-40386000Y-17018000D03*
D11*
X-50546000Y-17018000D03*
%TD*%
D16*
%TO.C,J12*%
X-80772000Y-14986000D03*
D17*
X-83312000Y-14986000D03*
X-85852000Y-14986000D03*
%TD*%
D12*
%TO.C,R35*%
X-48260000Y-38608000D03*
D14*
X-38100000Y-38608000D03*
%TD*%
D12*
%TO.C,C20*%
X5374000Y29464000D03*
X10374000Y29464000D03*
%TD*%
D13*
%TO.C,C8*%
X23114000Y-8636000D03*
D12*
X23114000Y-6136000D03*
%TD*%
D13*
%TO.C,C10*%
X23114000Y3343144D03*
D12*
X23114000Y5843144D03*
%TD*%
%TO.C,R17*%
X-35814000Y18542000D03*
D14*
X-45974000Y18542000D03*
%TD*%
D18*
%TO.C,K1*%
X-23861000Y-7366000D03*
X-23861000Y-4826000D03*
X-23861000Y-2286000D03*
X-23861000Y254000D03*
X-23861000Y2794000D03*
X-31481000Y2794000D03*
X-31481000Y254000D03*
X-31481000Y-2286000D03*
X-31481000Y-4826000D03*
X-31481000Y-7366000D03*
%TD*%
D12*
%TO.C,R42*%
X15494000Y-26416000D03*
D14*
X25654000Y-26416000D03*
%TD*%
D13*
%TO.C,U13*%
X7620000Y-35052000D03*
D14*
X5080000Y-35052000D03*
X2540000Y-35052000D03*
X0Y-35052000D03*
X-2540000Y-35052000D03*
X-5080000Y-35052000D03*
X-7620000Y-35052000D03*
X-7620000Y-42672000D03*
X-5080000Y-42672000D03*
X-2540000Y-42672000D03*
X0Y-42672000D03*
X2540000Y-42672000D03*
X5080000Y-42672000D03*
X7620000Y-42672000D03*
%TD*%
D12*
%TO.C,R3*%
X-66548000Y18288000D03*
D14*
X-76708000Y18288000D03*
%TD*%
D10*
%TO.C,D10*%
X-40386000Y-26924000D03*
D11*
X-50546000Y-26924000D03*
%TD*%
D12*
%TO.C,R46*%
X15494000Y-44704000D03*
D14*
X25654000Y-44704000D03*
%TD*%
D12*
%TO.C,R23*%
X-22352000Y24638000D03*
D14*
X-12192000Y24638000D03*
%TD*%
D12*
%TO.C,C9*%
X27726000Y4826000D03*
X32726000Y4826000D03*
%TD*%
%TO.C,R36*%
X-48006000Y-9398000D03*
D14*
X-37846000Y-9398000D03*
%TD*%
D12*
%TO.C,C5*%
X-54610000Y-7112000D03*
X-54610000Y-2112000D03*
%TD*%
D15*
%TO.C,HOLE3*%
X-83058000Y30480000D03*
%TD*%
D12*
%TO.C,C14*%
X-44704000Y27686000D03*
X-44704000Y32686000D03*
%TD*%
%TO.C,R12*%
X33782000Y15494000D03*
D14*
X43942000Y15494000D03*
%TD*%
D12*
%TO.C,R44*%
X15494000Y-32512000D03*
D14*
X25654000Y-32512000D03*
%TD*%
D13*
%TO.C,U14*%
X-17272000Y-24130000D03*
D14*
X-19812000Y-24130000D03*
X-22352000Y-24130000D03*
X-24892000Y-24130000D03*
X-27432000Y-24130000D03*
X-29972000Y-24130000D03*
X-32512000Y-24130000D03*
X-32512000Y-31750000D03*
X-29972000Y-31750000D03*
X-27432000Y-31750000D03*
X-24892000Y-31750000D03*
X-22352000Y-31750000D03*
X-19812000Y-31750000D03*
X-17272000Y-31750000D03*
%TD*%
D12*
%TO.C,R6*%
X33782000Y8636000D03*
D14*
X23622000Y8636000D03*
%TD*%
D13*
%TO.C,U11*%
X-17272000Y-13208000D03*
D14*
X-19812000Y-13208000D03*
X-22352000Y-13208000D03*
X-24892000Y-13208000D03*
X-27432000Y-13208000D03*
X-29972000Y-13208000D03*
X-32512000Y-13208000D03*
X-32512000Y-20828000D03*
X-29972000Y-20828000D03*
X-27432000Y-20828000D03*
X-24892000Y-20828000D03*
X-22352000Y-20828000D03*
X-19812000Y-20828000D03*
X-17272000Y-20828000D03*
%TD*%
D12*
%TO.C,R45*%
X15494000Y-41656000D03*
D14*
X25654000Y-41656000D03*
%TD*%
D12*
%TO.C,R13*%
X43942000Y18542000D03*
D14*
X33782000Y18542000D03*
%TD*%
D12*
%TO.C,R43*%
X15494000Y-29464000D03*
D14*
X25654000Y-29464000D03*
%TD*%
D13*
%TO.C,U6*%
X-72390000Y-31511000D03*
D14*
X-69850000Y-31511000D03*
X-67310000Y-31511000D03*
X-64770000Y-31511000D03*
X-64770000Y-23891000D03*
X-67310000Y-23891000D03*
X-69850000Y-23891000D03*
X-72390000Y-23891000D03*
%TD*%
D12*
%TO.C,C16*%
X-23916000Y31496000D03*
X-28916000Y31496000D03*
%TD*%
%TO.C,R47*%
X15494000Y-35560000D03*
D14*
X25654000Y-35560000D03*
%TD*%
D12*
%TO.C,C28*%
X-75946000Y-14264000D03*
X-75946000Y-19264000D03*
%TD*%
D19*
%TO.C,J23*%
X32258000Y-34544000D03*
D20*
X34798000Y-34544000D03*
X37338000Y-34544000D03*
X39878000Y-34544000D03*
X42418000Y-34544000D03*
X44958000Y-34544000D03*
%TD*%
D13*
%TO.C,C23*%
X-61682000Y-27432000D03*
D12*
X-59182000Y-27432000D03*
%TD*%
%TO.C,R40*%
X25654000Y-20320000D03*
D14*
X15494000Y-20320000D03*
%TD*%
D12*
%TO.C,R37*%
X-48260000Y-41656000D03*
D14*
X-38100000Y-41656000D03*
%TD*%
D12*
%TO.C,R20*%
X-22352000Y15494000D03*
D14*
X-12192000Y15494000D03*
%TD*%
D12*
%TO.C,C25*%
X20066000Y-3790000D03*
X20066000Y1210000D03*
%TD*%
D18*
%TO.C,K3*%
X3571000Y-7366000D03*
X3571000Y-4826000D03*
X3571000Y-2286000D03*
X3571000Y254000D03*
X3571000Y2794000D03*
X-4049000Y2794000D03*
X-4049000Y254000D03*
X-4049000Y-2286000D03*
X-4049000Y-4826000D03*
X-4049000Y-7366000D03*
%TD*%
D13*
%TO.C,C4*%
X-66612887Y13462000D03*
D12*
X-69112887Y13462000D03*
%TD*%
D13*
%TO.C,U5*%
X-72380000Y-20564000D03*
D14*
X-69840000Y-20564000D03*
X-67300000Y-20564000D03*
X-64760000Y-20564000D03*
X-64760000Y-12944000D03*
X-67300000Y-12944000D03*
X-69840000Y-12944000D03*
X-72380000Y-12944000D03*
%TD*%
D12*
%TO.C,R33*%
X-48260000Y-35560000D03*
D14*
X-38100000Y-35560000D03*
%TD*%
D12*
%TO.C,C13*%
X-38942000Y10922000D03*
X-43942000Y10922000D03*
%TD*%
%TO.C,C34*%
X-12446000Y-30440000D03*
X-12446000Y-25440000D03*
%TD*%
D10*
%TO.C,D7*%
X-40386000Y-23622000D03*
D11*
X-50546000Y-23622000D03*
%TD*%
D12*
%TO.C,R31*%
X18542000Y15494000D03*
D14*
X8382000Y15494000D03*
%TD*%
D16*
%TO.C,J11*%
X3302000Y9672000D03*
D17*
X762000Y9672000D03*
X-1778000Y9672000D03*
X-4318000Y9672000D03*
X-6858000Y9672000D03*
X-9398000Y9672000D03*
%TD*%
D12*
%TO.C,R8*%
X8382000Y5568000D03*
D14*
X18542000Y5568000D03*
%TD*%
D13*
%TO.C,C24*%
X-79502000Y-36830000D03*
D12*
X-82002000Y-36830000D03*
%TD*%
D13*
%TO.C,U2*%
X16500000Y2510000D03*
D14*
X13960000Y2510000D03*
X11420000Y2510000D03*
X8880000Y2510000D03*
X8880000Y-5110000D03*
X11420000Y-5110000D03*
X13960000Y-5110000D03*
X16500000Y-5110000D03*
%TD*%
D18*
%TO.C,K2*%
X-10145000Y-7366000D03*
X-10145000Y-4826000D03*
X-10145000Y-2286000D03*
X-10145000Y254000D03*
X-10145000Y2794000D03*
X-17765000Y2794000D03*
X-17765000Y254000D03*
X-17765000Y-2286000D03*
X-17765000Y-4826000D03*
X-17765000Y-7366000D03*
%TD*%
D12*
%TO.C,R32*%
X-48006000Y-3302000D03*
D14*
X-37846000Y-3302000D03*
%TD*%
D12*
%TO.C,R16*%
X-35814000Y15494000D03*
D14*
X-45974000Y15494000D03*
%TD*%
D12*
%TO.C,R24*%
X762000Y15494000D03*
D14*
X-9398000Y15494000D03*
%TD*%
D12*
%TO.C,C6*%
X-63500000Y-2286000D03*
X-63500000Y-7286000D03*
%TD*%
%TO.C,R10*%
X8382000Y8636000D03*
D14*
X18542000Y8636000D03*
%TD*%
D21*
%TO.C,J10*%
X-83058000Y22566000D03*
D22*
X-83058000Y20026000D03*
%TD*%
D12*
%TO.C,R18*%
X-35814000Y21590000D03*
D14*
X-45974000Y21590000D03*
%TD*%
D12*
%TO.C,R14*%
X43942000Y24638000D03*
D14*
X33782000Y24638000D03*
%TD*%
D13*
%TO.C,U9*%
X-44196000Y-508000D03*
D14*
X-41656000Y-508000D03*
X-41656000Y7112000D03*
X-44196000Y7112000D03*
%TD*%
D12*
%TO.C,R39*%
X25654000Y-17272000D03*
D14*
X15494000Y-17272000D03*
%TD*%
D12*
%TO.C,C29*%
X-75956000Y-25211000D03*
X-75956000Y-30211000D03*
%TD*%
%TO.C,C32*%
X-12446000Y-41362000D03*
X-12446000Y-36362000D03*
%TD*%
D13*
%TO.C,C12*%
X33274000Y27940000D03*
D12*
X33274000Y30440000D03*
%TD*%
%TO.C,C15*%
X-35266000Y10922000D03*
X-30266000Y10922000D03*
%TD*%
%TO.C,C2*%
X-71374000Y26162000D03*
X-71374000Y21162000D03*
%TD*%
%TO.C,R27*%
X762000Y18542000D03*
D14*
X-9398000Y18542000D03*
%TD*%
D12*
%TO.C,C11*%
X36362000Y11684000D03*
X41362000Y11684000D03*
%TD*%
%TO.C,R11*%
X23622000Y254000D03*
D14*
X33782000Y254000D03*
%TD*%
D23*
%TO.C,J15*%
X38862000Y-7620000D03*
D22*
X38862000Y-5080000D03*
X38862000Y-2540000D03*
X38862000Y0D03*
X38862000Y2540000D03*
X38862000Y5080000D03*
X38862000Y7620000D03*
%TD*%
D24*
%TO.C,J14*%
X-25908000Y9632000D03*
D17*
X-23368000Y9632000D03*
X-20828000Y9632000D03*
X-18288000Y9632000D03*
X-15748000Y9632000D03*
X-13208000Y9632000D03*
%TD*%
D13*
%TO.C,U15*%
X7620000Y-24130000D03*
D14*
X5080000Y-24130000D03*
X2540000Y-24130000D03*
X0Y-24130000D03*
X-2540000Y-24130000D03*
X-5080000Y-24130000D03*
X-7620000Y-24130000D03*
X-7620000Y-31750000D03*
X-5080000Y-31750000D03*
X-2540000Y-31750000D03*
X0Y-31750000D03*
X2540000Y-31750000D03*
X5080000Y-31750000D03*
X7620000Y-31750000D03*
%TD*%
D10*
%TO.C,D8*%
X-40386000Y-20320000D03*
D11*
X-50546000Y-20320000D03*
%TD*%
D12*
%TO.C,R38*%
X25654000Y-14224000D03*
D14*
X15494000Y-14224000D03*
%TD*%
D13*
%TO.C,C18*%
X-12954000Y27473144D03*
D12*
X-12954000Y29973144D03*
%TD*%
%TO.C,R28*%
X43942000Y21590000D03*
D14*
X33782000Y21590000D03*
%TD*%
D13*
%TO.C,U3*%
X-32756000Y22850000D03*
D14*
X-32756000Y20310000D03*
X-32756000Y17770000D03*
X-32756000Y15230000D03*
X-25136000Y15230000D03*
X-25136000Y17770000D03*
X-25136000Y20310000D03*
X-25136000Y22850000D03*
%TD*%
D12*
%TO.C,R7*%
X23622000Y-2794000D03*
D14*
X33782000Y-2794000D03*
%TD*%
D12*
%TO.C,R2*%
X-66548000Y32004000D03*
D14*
X-66548000Y21844000D03*
%TD*%
D12*
%TO.C,C27*%
X28956000Y26670000D03*
X23956000Y26670000D03*
%TD*%
%TO.C,C33*%
X12446000Y-41616000D03*
X12446000Y-36616000D03*
%TD*%
D13*
%TO.C,U12*%
X-17272000Y-35052000D03*
D14*
X-19812000Y-35052000D03*
X-22352000Y-35052000D03*
X-24892000Y-35052000D03*
X-27432000Y-35052000D03*
X-29972000Y-35052000D03*
X-32512000Y-35052000D03*
X-32512000Y-42672000D03*
X-29972000Y-42672000D03*
X-27432000Y-42672000D03*
X-24892000Y-42672000D03*
X-22352000Y-42672000D03*
X-19812000Y-42672000D03*
X-17272000Y-42672000D03*
%TD*%
D10*
%TO.C,D1*%
X-76200000Y31496000D03*
D11*
X-76200000Y21336000D03*
%TD*%
D16*
%TO.C,J16*%
X1778000Y-19050000D03*
D17*
X-762000Y-19050000D03*
X-3302000Y-19050000D03*
X-5842000Y-19050000D03*
%TD*%
D25*
%TO.C,U1*%
X-58674000Y-7230000D03*
D26*
X-58674000Y-4690000D03*
X-58674000Y-2150000D03*
%TD*%
D10*
%TO.C,D2*%
X-64008000Y762000D03*
D11*
X-53848000Y762000D03*
%TD*%
D12*
%TO.C,C30*%
X-75936000Y-36098000D03*
X-75936000Y-41098000D03*
%TD*%
%TO.C,C35*%
X12446000Y-30440000D03*
X12446000Y-25440000D03*
%TD*%
%TO.C,R34*%
X-48006000Y-6355000D03*
D14*
X-37846000Y-6355000D03*
%TD*%
D13*
%TO.C,C22*%
X-56134000Y-27432000D03*
D12*
X-53634000Y-27432000D03*
%TD*%
%TO.C,R9*%
X18542000Y11684000D03*
D14*
X8382000Y11684000D03*
%TD*%
D19*
%TO.C,J24*%
X44958000Y-16764000D03*
D20*
X42418000Y-16764000D03*
X39878000Y-16764000D03*
X37338000Y-16764000D03*
X34798000Y-16764000D03*
X32258000Y-16764000D03*
%TD*%
D12*
%TO.C,R29*%
X18542000Y21590000D03*
D14*
X8382000Y21590000D03*
%TD*%
D12*
%TO.C,C36*%
X14478000Y28702000D03*
X19478000Y28702000D03*
%TD*%
%TO.C,R22*%
X-12192000Y21590000D03*
D14*
X-22352000Y21590000D03*
%TD*%
D15*
%TO.C,HOLE2*%
X43180000Y30480000D03*
%TD*%
%TO.C,HOLE1*%
X43688000Y-43688000D03*
%TD*%
D12*
%TO.C,R41*%
X25654000Y-23368000D03*
D14*
X15494000Y-23368000D03*
%TD*%
D12*
%TO.C,C31*%
X-12446000Y-19518000D03*
X-12446000Y-14518000D03*
%TD*%
D13*
%TO.C,U4*%
X22606000Y23104000D03*
D14*
X22606000Y20564000D03*
X22606000Y18024000D03*
X22606000Y15484000D03*
X30226000Y15484000D03*
X30226000Y18024000D03*
X30226000Y20564000D03*
X30226000Y23104000D03*
%TD*%
D13*
%TO.C,U7*%
X-72380000Y-42408000D03*
D14*
X-69840000Y-42408000D03*
X-67300000Y-42408000D03*
X-64760000Y-42408000D03*
X-64760000Y-34788000D03*
X-67300000Y-34788000D03*
X-69840000Y-34788000D03*
X-72380000Y-34788000D03*
%TD*%
D10*
%TO.C,D9*%
X-40386000Y-30226000D03*
D11*
X-50546000Y-30226000D03*
%TD*%
D12*
%TO.C,R19*%
X-45974000Y24638000D03*
D14*
X-35814000Y24638000D03*
%TD*%
D12*
%TO.C,R30*%
X8382000Y18542000D03*
D14*
X18542000Y18542000D03*
%TD*%
D13*
%TO.C,C21*%
X4572000Y14986000D03*
D12*
X4572000Y17486000D03*
%TD*%
D27*
%TO.C,VR1*%
X2540000Y29932000D03*
X0Y27392000D03*
X-2540000Y29932000D03*
%TD*%
D12*
%TO.C,R5*%
X23622000Y11684000D03*
D14*
X33782000Y11684000D03*
%TD*%
D12*
%TO.C,R21*%
X-22352000Y18542000D03*
D14*
X-12192000Y18542000D03*
%TD*%
D12*
%TO.C,C7*%
X27726000Y-7112000D03*
X32726000Y-7112000D03*
%TD*%
%TO.C,R15*%
X18542000Y24638000D03*
D14*
X8382000Y24638000D03*
%TD*%
D12*
%TO.C,R26*%
X-9398000Y21590000D03*
D14*
X762000Y21590000D03*
%TD*%
D13*
%TO.C,U8*%
X-39116000Y-508000D03*
D14*
X-36576000Y-508000D03*
X-36576000Y7112000D03*
X-39116000Y7112000D03*
%TD*%
D12*
%TO.C,R48*%
X15494000Y-38608000D03*
D14*
X25654000Y-38608000D03*
%TD*%
D12*
%TO.C,R4*%
X8382000Y-8148000D03*
D14*
X18542000Y-8148000D03*
%TD*%
D13*
%TO.C,C17*%
X-36322000Y27432000D03*
D12*
X-36322000Y29932000D03*
%TD*%
%TO.C,R25*%
X-9398000Y24638000D03*
D14*
X762000Y24638000D03*
%TD*%
D28*
%TO.C,NT3*%
X-81026000Y4064000D03*
X-77774800Y4064000D03*
%TD*%
%TO.C,NT2*%
X-81026000Y11430000D03*
X-77774800Y11430000D03*
%TD*%
D29*
%TO.C,NT8*%
X38354000Y29413200D03*
X38354000Y31038800D03*
%TD*%
%TO.C,NT7*%
X-6858000Y30378400D03*
X-6858000Y32004000D03*
%TD*%
%TO.C,NT5*%
X-4826000Y30378400D03*
X-4826000Y32004000D03*
%TD*%
%TO.C,NT6*%
X-5842000Y30378400D03*
X-5842000Y32004000D03*
%TD*%
%TO.C,NT9*%
X36830000Y29413200D03*
X36830000Y31038800D03*
%TD*%
M02*
